<svg xmlns="http://www.w3.org/2000/svg" viewBox="0 0 100 100">
  <defs>
    <linearGradient id="cubeGrad" x1="0%" y1="0%" x2="100%" y2="100%">
      <stop offset="0%" style="stop-color:#f97316;stop-opacity:1" />
      <stop offset="100%" style="stop-color:#ea580c;stop-opacity:1" />
    </linearGradient>
    <linearGradient id="topGrad" x1="0%" y1="0%" x2="100%" y2="0%">
      <stop offset="0%" style="stop-color:#fb923c;stop-opacity:1" />
      <stop offset="100%" style="stop-color:#f97316;stop-opacity:1" />
    </linearGradient>
    <linearGradient id="sideGrad" x1="0%" y1="0%" x2="0%" y2="100%">
      <stop offset="0%" style="stop-color:#ea580c;stop-opacity:1" />
      <stop offset="100%" style="stop-color:#c2410c;stop-opacity:1" />
    </linearGradient>
  </defs>

  <!-- Background circle -->
  <rect width="100" height="100" rx="20" fill="#1a1a1a"/>

  <!-- 3D Cube -->
  <g transform="translate(50, 50) scale(0.7)">
    <!-- Left face -->
    <path d="M-30,-10 L-30,30 L0,45 L0,5 Z" fill="url(#sideGrad)"/>
    <!-- Right face -->
    <path d="M0,5 L0,45 L30,30 L30,-10 Z" fill="#f97316"/>
    <!-- Top face -->
    <path d="M-30,-10 L0,5 L30,-10 L0,-25 Z" fill="url(#topGrad)"/>
    <!-- Outline -->
    <path d="M-30,-10 L-30,30 L0,45 L30,30 L30,-10 L0,-25 Z" fill="none" stroke="#fb923c" stroke-width="2"/>
    <path d="M-30,-10 L0,5 L30,-10" fill="none" stroke="#fb923c" stroke-width="2"/>
    <path d="M0,5 L0,45" fill="none" stroke="#c2410c" stroke-width="2"/>
  </g>
</svg>